 <svg
          version="1.0"
          xmlns="http://www.w3.org/2000/svg"
          width="150"
          height="100"
          viewBox="0 0 300.000000 130.000000"
          fill="#fff"
          preserveAspectRatio="xMidYMid meet"
        >
          {" "}
          <g
            transform="translate(0.000000,130.000000) scale(0.100000,-0.100000)"
            stroke="none"
          >
            {" "}
            <path d="M465 981 c-33 -16 -84 -42 -113 -59 l-54 -29 151 -87 152 -87 41 25 41 24 -44 22 -43 22 39 20 c52 26 85 57 85 79 0 35 -108 97 -170 99 -14 0 -52 -13 -85 -29z m202 -42 c21 -18 15 -44 -16 -62 -38 -22 -44 -21 -31 3 13 24 0 54 -31 70 -11 6 -17 15 -14 20 6 10 67 -11 92 -31z m-227 -23 c-8 -21 -4 -29 26 -55 30 -27 45 -34 74 -33 3 0 15 3 27 6 17 5 22 3 21 -11 0 -10 3 -26 7 -37 7 -16 5 -17 -15 -11 -12 4 -50 23 -84 42 -33 19 -72 40 -86 48 -14 8 -25 19 -25 24 0 9 45 45 62 50 1 1 -2 -10 -7 -23z m141 7 c16 -10 29 -21 29 -25 0 -4 -18 -17 -39 -28 l-39 -19 -41 22 c-22 12 -41 24 -41 27 0 6 71 38 88 39 8 1 27 -7 43 -16z" />{" "}
            <path d="M292 659 l3 -201 105 -61 c126 -73 169 -80 183 -30 5 17 6 48 3 68 -8 38 -59 105 -82 105 -25 0 -26 27 -3 59 13 18 19 36 15 47 -5 14 -4 15 8 5 21 -17 24 -51 9 -83 -11 -22 -10 -27 4 -32 26 -10 43 13 43 61 0 82 -36 123 -182 207 -53 31 -100 56 -103 56 -3 0 -4 -90 -3 -201z m89 114 c34 -20 36 -29 10 -38 -10 -3 -24 -19 -31 -35 -10 -25 -9 -34 9 -63 20 -33 20 -34 2 -71 -16 -30 -17 -43 -9 -67 13 -36 2 -51 -18 -25 -18 25 -21 316 -3 316 6 0 24 -8 40 -17z m100 -133 c9 -41 -1 -44 -50 -17 -37 20 -41 26 -41 60 l0 38 43 -25 c30 -18 44 -34 48 -56z m-32 -105 c33 -20 41 -31 41 -55 0 -35 -8 -37 -59 -10 -34 17 -39 24 -43 60 -4 45 -2 46 61 5z m101 -122 c0 -39 -18 -50 -52 -32 -43 23 -50 36 -23 43 14 4 31 15 37 26 17 27 38 7 38 -37z" />{" "}
            <path d="M832 820 c-12 -5 -65 -35 -117 -65 l-95 -56 0 -205 0 -204 38 24 c20 13 69 42 107 64 39 22 86 56 105 76 30 32 35 44 38 99 4 67 -11 96 -44 83 -15 -6 -15 -8 -1 -24 30 -34 25 -83 -13 -124 -16 -18 -30 -28 -30 -21 0 6 5 15 10 18 6 3 10 22 10 40 0 26 -6 39 -25 51 l-26 17 22 23 c12 13 25 21 30 19 13 -9 58 54 65 91 14 77 -17 117 -74 94z m38 -51 c9 -16 9 -28 0 -50 -14 -34 -30 -37 -47 -10 -7 11 -25 21 -40 23 l-28 3 40 27 c49 33 61 34 75 7z m-163 -77 c-23 -25 -22 -87 2 -111 18 -18 18 -19 -2 -40 -40 -39 -22 -121 27 -121 19 -1 18 -3 -9 -25 -33 -27 -60 -32 -68 -12 -9 25 -6 263 4 289 10 24 23 33 53 37 5 0 2 -7 -7 -17z m103 -12 c0 -25 -8 -35 -47 -60 l-48 -29 -3 25 c-5 38 3 51 45 73 50 27 53 26 53 -9z m4 -147 c-4 -16 -9 -32 -11 -36 -5 -9 -79 -57 -88 -57 -3 0 -5 16 -5 35 0 29 6 39 38 59 52 35 74 34 66 -1z" />{" "}
            <path d="M990 649 l0 -99 68 0 c40 0 73 5 80 12 17 17 15 63 -4 79 -14 11 -14 13 0 21 20 11 21 52 2 67 -8 7 -44 14 -80 16 l-66 4 0 -100z m108 34 c2 -9 -7 -13 -27 -13 -21 0 -31 5 -31 16 0 19 51 16 58 -3z m0 -70 c-2 -11 -14 -19 -31 -21 -22 -3 -27 1 -27 17 0 17 6 21 31 21 24 0 30 -4 27 -17z" />{" "}
            <path d="M1190 651 l0 -101 28 0 28 0 -1 98 0 97 -28 3 -27 3 0 -100z" />{" "}
            <path d="M1313 736 c-38 -28 -42 -135 -6 -171 9 -10 34 -15 68 -15 62 0 85 21 85 77 0 32 -1 33 -40 33 -33 0 -40 -3 -40 -20 0 -12 7 -20 16 -20 9 0 14 -6 12 -12 -3 -7 -18 -13 -34 -13 -28 0 -29 2 -32 53 -3 52 -3 52 27 52 16 0 33 -4 36 -10 9 -15 55 -12 55 3 0 47 -101 76 -147 43z" />{" "}
            <path d="M1498 650 l-3 -100 67 0 c47 0 71 5 82 16 21 21 20 60 -1 73 -12 7 -14 13 -7 18 18 13 23 51 9 69 -9 13 -30 18 -78 21 l-66 4 -3 -101z m102 35 c0 -9 -9 -15 -25 -15 -16 0 -25 6 -25 15 0 9 9 15 25 15 16 0 25 -6 25 -15z m5 -75 c0 -9 -11 -16 -27 -18 -23 -3 -28 1 -28 18 0 17 5 21 28 18 16 -2 27 -9 27 -18z" />{" "}
            <path d="M1710 730 c-15 -15 -20 -33 -20 -78 0 -84 16 -102 89 -102 75 0 86 12 86 97 0 56 -3 67 -24 84 -32 26 -104 26 -131 -1z m100 -80 c0 -54 -17 -73 -49 -53 -14 9 -18 38 -12 96 1 4 15 7 31 7 29 0 30 -1 30 -50z" />{" "}
            <path d="M1890 747 c0 -2 11 -24 24 -49 l23 -44 -23 -45 c-30 -57 -30 -59 5 -59 25 0 32 6 42 35 16 43 24 44 35 3 8 -27 15 -34 42 -36 18 -2 32 -1 32 1 0 3 -11 25 -25 50 l-26 46 26 51 26 51 -33 -3 c-27 -2 -35 -8 -43 -35 -5 -18 -12 -33 -16 -33 -3 0 -10 15 -15 33 -8 26 -15 33 -42 35 -18 2 -32 1 -32 -1z" />{" "}
            <path d="M2500 738 c-23 -12 -25 -20 -28 -88 -3 -67 -1 -77 19 -92 26 -22 87 -23 117 -2 19 13 22 24 22 88 0 52 -4 77 -15 86 -22 18 -87 22 -115 8z m105 -41 c4 -13 5 -46 3 -73 l-3 -49 -55 0 -55 0 -3 59 c-4 82 -1 86 57 86 45 0 51 -3 56 -23z" />{" "}
            <path d="M2100 640 c0 -60 4 -100 10 -100 6 0 10 18 10 40 l0 40 48 0 c57 0 72 12 72 60 0 49 -15 60 -82 60 l-58 0 0 -100z m118 52 c5 -34 -15 -52 -59 -52 -39 0 -39 0 -39 41 l0 40 48 -3 c40 -3 47 -6 50 -26z" />{" "}
            <path d="M2280 639 c0 -76 3 -100 12 -97 8 3 12 19 10 41 l-4 37 51 0 50 0 3 -37 c2 -21 8 -37 13 -36 14 3 18 49 6 72 -7 13 -8 22 -1 26 14 9 13 68 -2 83 -7 7 -39 12 -75 12 l-63 0 0 -101z m120 47 c0 -38 -12 -46 -66 -46 -33 0 -34 1 -34 40 l0 40 50 0 50 0 0 -34z" />{" "}
          </g>{" "}
        </svg>